<mxfile host="Electron" modified="2023-10-26T22:42:47.224Z" agent="Mozilla/5.0 (Windows NT 10.0; Win64; x64) AppleWebKit/537.36 (KHTML, like Gecko) draw.io/22.0.3 Chrome/114.0.5735.289 Electron/25.8.4 Safari/537.36" etag="S0UNQ7gr1tf6zIokCTA8" version="22.0.3" type="device">
  <diagram id="C5RBs43oDa-KdzZeNtuy" name="Page-1">
    <mxGraphModel dx="472" dy="838" grid="1" gridSize="10" guides="1" tooltips="1" connect="1" arrows="1" fold="1" page="1" pageScale="1" pageWidth="827" pageHeight="1169" math="0" shadow="0">
      <root>
        <mxCell id="WIyWlLk6GJQsqaUBKTNV-0" />
        <mxCell id="WIyWlLk6GJQsqaUBKTNV-1" parent="WIyWlLk6GJQsqaUBKTNV-0" />
        <mxCell id="zkfFHV4jXpPFQw0GAbJ--6" value="listBooks" style="swimlane;fontStyle=0;align=center;verticalAlign=top;childLayout=stackLayout;horizontal=1;startSize=26;horizontalStack=0;resizeParent=1;resizeLast=0;collapsible=1;marginBottom=0;rounded=0;shadow=0;strokeWidth=1;" parent="WIyWlLk6GJQsqaUBKTNV-1" vertex="1">
          <mxGeometry x="840" y="240" width="340" height="240" as="geometry">
            <mxRectangle x="130" y="380" width="160" height="26" as="alternateBounds" />
          </mxGeometry>
        </mxCell>
        <mxCell id="LSQktukB8Nl4H45oINtx-19" value="&lt;div style=&quot;&quot;&gt;&amp;nbsp;- Ui::listBooks *ui&lt;/div&gt;" style="text;html=1;align=left;verticalAlign=middle;resizable=0;points=[];autosize=1;strokeColor=none;fillColor=none;" parent="zkfFHV4jXpPFQw0GAbJ--6" vertex="1">
          <mxGeometry y="26" width="340" height="30" as="geometry" />
        </mxCell>
        <mxCell id="LSQktukB8Nl4H45oINtx-20" value="&amp;nbsp;- QClipboard *clipBoard" style="text;html=1;align=left;verticalAlign=middle;resizable=0;points=[];autosize=1;strokeColor=none;fillColor=none;" parent="zkfFHV4jXpPFQw0GAbJ--6" vertex="1">
          <mxGeometry y="56" width="340" height="30" as="geometry" />
        </mxCell>
        <mxCell id="zkfFHV4jXpPFQw0GAbJ--9" value="" style="line;html=1;strokeWidth=1;align=left;verticalAlign=middle;spacingTop=-1;spacingLeft=3;spacingRight=3;rotatable=0;labelPosition=right;points=[];portConstraint=eastwest;" parent="zkfFHV4jXpPFQw0GAbJ--6" vertex="1">
          <mxGeometry y="86" width="340" height="8" as="geometry" />
        </mxCell>
        <mxCell id="LSQktukB8Nl4H45oINtx-21" value="&amp;nbsp;+ explicit listBooks(QWidget *)" style="text;html=1;align=left;verticalAlign=middle;resizable=0;points=[];autosize=1;strokeColor=none;fillColor=none;" parent="zkfFHV4jXpPFQw0GAbJ--6" vertex="1">
          <mxGeometry y="94" width="340" height="30" as="geometry" />
        </mxCell>
        <mxCell id="LSQktukB8Nl4H45oINtx-22" value="&amp;nbsp;+ ~listBooks()" style="text;html=1;align=left;verticalAlign=middle;resizable=0;points=[];autosize=1;strokeColor=none;fillColor=none;" parent="zkfFHV4jXpPFQw0GAbJ--6" vertex="1">
          <mxGeometry y="124" width="340" height="30" as="geometry" />
        </mxCell>
        <mxCell id="LSQktukB8Nl4H45oINtx-23" value="&amp;nbsp;+ void setBooksList(QStringList)" style="text;html=1;align=left;verticalAlign=middle;resizable=0;points=[];autosize=1;strokeColor=none;fillColor=none;" parent="zkfFHV4jXpPFQw0GAbJ--6" vertex="1">
          <mxGeometry y="154" width="340" height="30" as="geometry" />
        </mxCell>
        <mxCell id="LSQktukB8Nl4H45oINtx-24" value="&amp;nbsp; - void on_listWidget_itemDoubleClicked(QListWidgetItem*)" style="text;html=1;align=left;verticalAlign=middle;resizable=0;points=[];autosize=1;strokeColor=none;fillColor=none;" parent="zkfFHV4jXpPFQw0GAbJ--6" vertex="1">
          <mxGeometry y="184" width="340" height="30" as="geometry" />
        </mxCell>
        <mxCell id="zkfFHV4jXpPFQw0GAbJ--17" value="MainWindow&#xa;" style="swimlane;fontStyle=0;align=center;verticalAlign=top;childLayout=stackLayout;horizontal=1;startSize=26;horizontalStack=0;resizeParent=1;resizeLast=0;collapsible=1;marginBottom=0;rounded=0;shadow=0;strokeWidth=1;" parent="WIyWlLk6GJQsqaUBKTNV-1" vertex="1">
          <mxGeometry x="40" y="240" width="280" height="880" as="geometry">
            <mxRectangle x="550" y="140" width="160" height="26" as="alternateBounds" />
          </mxGeometry>
        </mxCell>
        <mxCell id="zkfFHV4jXpPFQw0GAbJ--18" value="- Ui::MainWindow *ui" style="text;align=left;verticalAlign=top;spacingLeft=4;spacingRight=4;overflow=hidden;rotatable=0;points=[[0,0.5],[1,0.5]];portConstraint=eastwest;" parent="zkfFHV4jXpPFQw0GAbJ--17" vertex="1">
          <mxGeometry y="26" width="280" height="26" as="geometry" />
        </mxCell>
        <mxCell id="zkfFHV4jXpPFQw0GAbJ--19" value="- QString filePath" style="text;align=left;verticalAlign=top;spacingLeft=4;spacingRight=4;overflow=hidden;rotatable=0;points=[[0,0.5],[1,0.5]];portConstraint=eastwest;rounded=0;shadow=0;html=0;" parent="zkfFHV4jXpPFQw0GAbJ--17" vertex="1">
          <mxGeometry y="52" width="280" height="26" as="geometry" />
        </mxCell>
        <mxCell id="zkfFHV4jXpPFQw0GAbJ--20" value="- QString fileName" style="text;align=left;verticalAlign=top;spacingLeft=4;spacingRight=4;overflow=hidden;rotatable=0;points=[[0,0.5],[1,0.5]];portConstraint=eastwest;rounded=0;shadow=0;html=0;" parent="zkfFHV4jXpPFQw0GAbJ--17" vertex="1">
          <mxGeometry y="78" width="280" height="26" as="geometry" />
        </mxCell>
        <mxCell id="zkfFHV4jXpPFQw0GAbJ--21" value="- QString text" style="text;align=left;verticalAlign=top;spacingLeft=4;spacingRight=4;overflow=hidden;rotatable=0;points=[[0,0.5],[1,0.5]];portConstraint=eastwest;rounded=0;shadow=0;html=0;" parent="zkfFHV4jXpPFQw0GAbJ--17" vertex="1">
          <mxGeometry y="104" width="280" height="26" as="geometry" />
        </mxCell>
        <mxCell id="zkfFHV4jXpPFQw0GAbJ--22" value="- QString fontName" style="text;align=left;verticalAlign=top;spacingLeft=4;spacingRight=4;overflow=hidden;rotatable=0;points=[[0,0.5],[1,0.5]];portConstraint=eastwest;rounded=0;shadow=0;html=0;" parent="zkfFHV4jXpPFQw0GAbJ--17" vertex="1">
          <mxGeometry y="130" width="280" height="26" as="geometry" />
        </mxCell>
        <mxCell id="zkfFHV4jXpPFQw0GAbJ--25" value="- int fontSize" style="text;align=left;verticalAlign=top;spacingLeft=4;spacingRight=4;overflow=hidden;rotatable=0;points=[[0,0.5],[1,0.5]];portConstraint=eastwest;" parent="zkfFHV4jXpPFQw0GAbJ--17" vertex="1">
          <mxGeometry y="156" width="280" height="26" as="geometry" />
        </mxCell>
        <mxCell id="LSQktukB8Nl4H45oINtx-12" value="&amp;nbsp;- long pagesCount" style="text;html=1;align=left;verticalAlign=middle;resizable=0;points=[];autosize=1;strokeColor=none;fillColor=none;" parent="zkfFHV4jXpPFQw0GAbJ--17" vertex="1">
          <mxGeometry y="182" width="280" height="30" as="geometry" />
        </mxCell>
        <mxCell id="LSQktukB8Nl4H45oINtx-13" value="&amp;nbsp;- long curPage" style="text;html=1;align=left;verticalAlign=middle;resizable=0;points=[];autosize=1;strokeColor=none;fillColor=none;" parent="zkfFHV4jXpPFQw0GAbJ--17" vertex="1">
          <mxGeometry y="212" width="280" height="30" as="geometry" />
        </mxCell>
        <mxCell id="LSQktukB8Nl4H45oINtx-14" value="&amp;nbsp;- long charCount" style="text;html=1;align=left;verticalAlign=middle;resizable=0;points=[];autosize=1;strokeColor=none;fillColor=none;" parent="zkfFHV4jXpPFQw0GAbJ--17" vertex="1">
          <mxGeometry y="242" width="280" height="30" as="geometry" />
        </mxCell>
        <mxCell id="zkfFHV4jXpPFQw0GAbJ--23" value="" style="line;html=1;strokeWidth=1;align=left;verticalAlign=middle;spacingTop=-1;spacingLeft=3;spacingRight=3;rotatable=0;labelPosition=right;points=[];portConstraint=eastwest;" parent="zkfFHV4jXpPFQw0GAbJ--17" vertex="1">
          <mxGeometry y="272" width="280" height="8" as="geometry" />
        </mxCell>
        <mxCell id="LSQktukB8Nl4H45oINtx-15" value=" + MainWindow(QWidget*)&#xa;&#xa; + ~MainWindow()&#xa;&#xa; + void open_file()&#xa;&#xa; + void show_fb2()&#xa;&#xa; + void show_epub()&#xa;&#xa; + void show_txt()&#xa;&#xa; + void reset_settings()&#xa;&#xa; + void add_to_recent()&#xa;&#xa; + void open_bookmarks()&#xa;&#xa; + void open_list(QString)" style="text;whiteSpace=wrap;" parent="zkfFHV4jXpPFQw0GAbJ--17" vertex="1">
          <mxGeometry y="280" width="280" height="280" as="geometry" />
        </mxCell>
        <mxCell id="LSQktukB8Nl4H45oINtx-17" value="&lt;div&gt;&amp;nbsp;+ void on_actionSelect_text_triggered()&lt;/div&gt;&lt;div&gt;&lt;br&gt;&lt;/div&gt;&lt;div&gt;&amp;nbsp;+ void on_actionRecent_Books_triggered()&lt;/div&gt;&lt;div&gt;&lt;br&gt;&lt;/div&gt;&lt;div&gt;&amp;nbsp;+ void on_actionFavorites_triggered()&lt;/div&gt;&lt;div&gt;&lt;br&gt;&lt;/div&gt;&lt;div&gt;&amp;nbsp;+ void on_actionBookMarks_triggered()&lt;/div&gt;&lt;div&gt;&lt;br&gt;&lt;/div&gt;&lt;div&gt;&amp;nbsp;+ void on_actionInfo_triggered()&lt;/div&gt;&lt;div&gt;&lt;br&gt;&lt;/div&gt;&lt;div&gt;&amp;nbsp;+ void on_addToFavorites_clicked()&lt;/div&gt;&lt;div&gt;&lt;br&gt;&lt;/div&gt;&lt;div&gt;&amp;nbsp;+ void on_addBookmark_clicked()&lt;/div&gt;&lt;div&gt;&lt;br&gt;&lt;/div&gt;&lt;div&gt;&amp;nbsp;+ void on_comboFonts_activated(int)&lt;/div&gt;&lt;div&gt;&amp;nbsp;&lt;/div&gt;&lt;div&gt;&amp;nbsp;+ void on_comboSize_activated(int)&lt;/div&gt;&lt;div&gt;&lt;br&gt;&lt;/div&gt;&lt;div&gt;&amp;nbsp;+ void on_btnBack_clicked()&lt;/div&gt;&lt;div&gt;&lt;br&gt;&lt;/div&gt;&lt;div&gt;&amp;nbsp;+ void on_btnNext_clicked()&lt;/div&gt;" style="text;html=1;align=left;verticalAlign=middle;resizable=0;points=[];autosize=1;strokeColor=none;fillColor=none;" parent="zkfFHV4jXpPFQw0GAbJ--17" vertex="1">
          <mxGeometry y="560" width="280" height="320" as="geometry" />
        </mxCell>
        <mxCell id="LSQktukB8Nl4H45oINtx-7" value="FB2Files" style="swimlane;fontStyle=2;align=center;verticalAlign=top;childLayout=stackLayout;horizontal=1;startSize=26;horizontalStack=0;resizeParent=1;resizeLast=0;collapsible=1;marginBottom=0;rounded=0;shadow=0;strokeWidth=1;" parent="WIyWlLk6GJQsqaUBKTNV-1" vertex="1">
          <mxGeometry x="440" y="240" width="300" height="120" as="geometry">
            <mxRectangle x="440" y="240" width="160" height="26" as="alternateBounds" />
          </mxGeometry>
        </mxCell>
        <mxCell id="LSQktukB8Nl4H45oINtx-8" value="" style="line;html=1;strokeWidth=1;align=left;verticalAlign=middle;spacingTop=-1;spacingLeft=3;spacingRight=3;rotatable=0;labelPosition=right;points=[];portConstraint=eastwest;" parent="LSQktukB8Nl4H45oINtx-7" vertex="1">
          <mxGeometry y="26" width="300" height="8" as="geometry" />
        </mxCell>
        <mxCell id="LSQktukB8Nl4H45oINtx-9" value="+ explicit FB2Files(QObject *)" style="text;align=left;verticalAlign=top;spacingLeft=4;spacingRight=4;overflow=hidden;rotatable=0;points=[[0,0.5],[1,0.5]];portConstraint=eastwest;" parent="LSQktukB8Nl4H45oINtx-7" vertex="1">
          <mxGeometry y="34" width="300" height="26" as="geometry" />
        </mxCell>
        <mxCell id="LSQktukB8Nl4H45oINtx-10" value="&amp;nbsp;+ bool openFB2File(QFile&amp;amp;, QString&amp;amp;, QString, int)" style="text;html=1;align=left;verticalAlign=middle;resizable=0;points=[];autosize=1;strokeColor=none;fillColor=none;" parent="LSQktukB8Nl4H45oINtx-7" vertex="1">
          <mxGeometry y="60" width="300" height="30" as="geometry" />
        </mxCell>
        <mxCell id="LSQktukB8Nl4H45oINtx-18" value="&lt;div&gt;&lt;span style=&quot;background-color: initial;&quot;&gt;&amp;nbsp;&lt;/span&gt;&lt;/div&gt;&lt;div&gt;&lt;br&gt;&lt;/div&gt;&lt;div&gt;&lt;br&gt;&lt;/div&gt;&lt;div&gt;&lt;br&gt;&lt;/div&gt;&lt;div&gt;&amp;nbsp;&lt;/div&gt;&lt;div&gt;&lt;br&gt;&lt;/div&gt;&lt;div&gt;&amp;nbsp;&lt;/div&gt;" style="text;html=1;align=left;verticalAlign=middle;resizable=0;points=[];autosize=1;strokeColor=none;fillColor=none;" parent="WIyWlLk6GJQsqaUBKTNV-1" vertex="1">
          <mxGeometry x="576" y="570" width="30" height="110" as="geometry" />
        </mxCell>
        <mxCell id="LSQktukB8Nl4H45oINtx-25" value="listBookMarks" style="swimlane;fontStyle=0;align=center;verticalAlign=top;childLayout=stackLayout;horizontal=1;startSize=26;horizontalStack=0;resizeParent=1;resizeLast=0;collapsible=1;marginBottom=0;rounded=0;shadow=0;strokeWidth=1;" parent="WIyWlLk6GJQsqaUBKTNV-1" vertex="1">
          <mxGeometry x="1280" y="240" width="340" height="244" as="geometry">
            <mxRectangle x="130" y="380" width="160" height="26" as="alternateBounds" />
          </mxGeometry>
        </mxCell>
        <mxCell id="LSQktukB8Nl4H45oINtx-26" value="&lt;div style=&quot;&quot;&gt;&amp;nbsp;- Ui::listBooks *ui&lt;/div&gt;" style="text;html=1;align=left;verticalAlign=middle;resizable=0;points=[];autosize=1;strokeColor=none;fillColor=none;" parent="LSQktukB8Nl4H45oINtx-25" vertex="1">
          <mxGeometry y="26" width="340" height="30" as="geometry" />
        </mxCell>
        <mxCell id="LSQktukB8Nl4H45oINtx-27" value="&amp;nbsp;- QClipboard *clipBoard" style="text;html=1;align=left;verticalAlign=middle;resizable=0;points=[];autosize=1;strokeColor=none;fillColor=none;" parent="LSQktukB8Nl4H45oINtx-25" vertex="1">
          <mxGeometry y="56" width="340" height="30" as="geometry" />
        </mxCell>
        <mxCell id="LSQktukB8Nl4H45oINtx-28" value="" style="line;html=1;strokeWidth=1;align=left;verticalAlign=middle;spacingTop=-1;spacingLeft=3;spacingRight=3;rotatable=0;labelPosition=right;points=[];portConstraint=eastwest;" parent="LSQktukB8Nl4H45oINtx-25" vertex="1">
          <mxGeometry y="86" width="340" height="8" as="geometry" />
        </mxCell>
        <mxCell id="LSQktukB8Nl4H45oINtx-29" value="&amp;nbsp;+ explicit listBookMarks(QWidget *)" style="text;html=1;align=left;verticalAlign=middle;resizable=0;points=[];autosize=1;strokeColor=none;fillColor=none;" parent="LSQktukB8Nl4H45oINtx-25" vertex="1">
          <mxGeometry y="94" width="340" height="30" as="geometry" />
        </mxCell>
        <mxCell id="LSQktukB8Nl4H45oINtx-30" value="&amp;nbsp;+ ~listBookMarks()" style="text;html=1;align=left;verticalAlign=middle;resizable=0;points=[];autosize=1;strokeColor=none;fillColor=none;" parent="LSQktukB8Nl4H45oINtx-25" vertex="1">
          <mxGeometry y="124" width="340" height="30" as="geometry" />
        </mxCell>
        <mxCell id="LSQktukB8Nl4H45oINtx-31" value="&amp;nbsp;+ void setBookMarksList(QStringList)" style="text;html=1;align=left;verticalAlign=middle;resizable=0;points=[];autosize=1;strokeColor=none;fillColor=none;" parent="LSQktukB8Nl4H45oINtx-25" vertex="1">
          <mxGeometry y="154" width="340" height="30" as="geometry" />
        </mxCell>
        <mxCell id="LSQktukB8Nl4H45oINtx-33" value="&amp;nbsp;+ open_bookMarks(QString)" style="text;html=1;align=left;verticalAlign=middle;resizable=0;points=[];autosize=1;strokeColor=none;fillColor=none;" parent="LSQktukB8Nl4H45oINtx-25" vertex="1">
          <mxGeometry y="184" width="340" height="30" as="geometry" />
        </mxCell>
        <mxCell id="LSQktukB8Nl4H45oINtx-32" value="&amp;nbsp;-&amp;nbsp; void on_listWidget_itemDoubleClicked(QListWidgetItem*)" style="text;html=1;align=left;verticalAlign=middle;resizable=0;points=[];autosize=1;strokeColor=none;fillColor=none;" parent="LSQktukB8Nl4H45oINtx-25" vertex="1">
          <mxGeometry y="214" width="340" height="30" as="geometry" />
        </mxCell>
        <mxCell id="LSQktukB8Nl4H45oINtx-34" value="QMainWindow" style="swimlane;fontStyle=2;align=center;verticalAlign=top;childLayout=stackLayout;horizontal=1;startSize=26;horizontalStack=0;resizeParent=1;resizeLast=0;collapsible=1;marginBottom=0;rounded=0;shadow=0;strokeWidth=1;" parent="WIyWlLk6GJQsqaUBKTNV-1" vertex="1">
          <mxGeometry x="40" y="80" width="280" height="40" as="geometry">
            <mxRectangle x="230" y="140" width="160" height="26" as="alternateBounds" />
          </mxGeometry>
        </mxCell>
        <mxCell id="LSQktukB8Nl4H45oINtx-35" value="" style="line;html=1;strokeWidth=1;align=left;verticalAlign=middle;spacingTop=-1;spacingLeft=3;spacingRight=3;rotatable=0;labelPosition=right;points=[];portConstraint=eastwest;" parent="LSQktukB8Nl4H45oINtx-34" vertex="1">
          <mxGeometry y="26" width="280" height="8" as="geometry" />
        </mxCell>
        <mxCell id="LSQktukB8Nl4H45oINtx-38" value="QObject" style="swimlane;fontStyle=2;align=center;verticalAlign=top;childLayout=stackLayout;horizontal=1;startSize=26;horizontalStack=0;resizeParent=1;resizeLast=0;collapsible=1;marginBottom=0;rounded=0;shadow=0;strokeWidth=1;" parent="WIyWlLk6GJQsqaUBKTNV-1" vertex="1">
          <mxGeometry x="440" y="80" width="280" height="40" as="geometry">
            <mxRectangle x="440" y="80" width="160" height="26" as="alternateBounds" />
          </mxGeometry>
        </mxCell>
        <mxCell id="LSQktukB8Nl4H45oINtx-39" value="" style="line;html=1;strokeWidth=1;align=left;verticalAlign=middle;spacingTop=-1;spacingLeft=3;spacingRight=3;rotatable=0;labelPosition=right;points=[];portConstraint=eastwest;" parent="LSQktukB8Nl4H45oINtx-38" vertex="1">
          <mxGeometry y="26" width="280" height="8" as="geometry" />
        </mxCell>
        <mxCell id="LSQktukB8Nl4H45oINtx-42" value="QWidget" style="swimlane;fontStyle=2;align=center;verticalAlign=top;childLayout=stackLayout;horizontal=1;startSize=26;horizontalStack=0;resizeParent=1;resizeLast=0;collapsible=1;marginBottom=0;rounded=0;shadow=0;strokeWidth=1;" parent="WIyWlLk6GJQsqaUBKTNV-1" vertex="1">
          <mxGeometry x="840" y="80" width="280" height="40" as="geometry">
            <mxRectangle x="230" y="140" width="160" height="26" as="alternateBounds" />
          </mxGeometry>
        </mxCell>
        <mxCell id="LSQktukB8Nl4H45oINtx-43" value="" style="line;html=1;strokeWidth=1;align=left;verticalAlign=middle;spacingTop=-1;spacingLeft=3;spacingRight=3;rotatable=0;labelPosition=right;points=[];portConstraint=eastwest;" parent="LSQktukB8Nl4H45oINtx-42" vertex="1">
          <mxGeometry y="26" width="280" height="8" as="geometry" />
        </mxCell>
        <mxCell id="LSQktukB8Nl4H45oINtx-50" value="" style="endArrow=block;endSize=16;endFill=0;html=1;rounded=0;exitX=0.5;exitY=0;exitDx=0;exitDy=0;" parent="WIyWlLk6GJQsqaUBKTNV-1" source="zkfFHV4jXpPFQw0GAbJ--6" edge="1">
          <mxGeometry width="160" relative="1" as="geometry">
            <mxPoint x="1030" y="260" as="sourcePoint" />
            <mxPoint x="1010" y="120" as="targetPoint" />
            <Array as="points">
              <mxPoint x="1010" y="200" />
            </Array>
          </mxGeometry>
        </mxCell>
        <mxCell id="LSQktukB8Nl4H45oINtx-51" value="" style="endArrow=block;endSize=16;endFill=0;html=1;rounded=0;exitX=0.5;exitY=0;exitDx=0;exitDy=0;entryX=0.5;entryY=1;entryDx=0;entryDy=0;" parent="WIyWlLk6GJQsqaUBKTNV-1" source="zkfFHV4jXpPFQw0GAbJ--17" target="LSQktukB8Nl4H45oINtx-34" edge="1">
          <mxGeometry width="160" relative="1" as="geometry">
            <mxPoint x="180" y="200" as="sourcePoint" />
            <mxPoint x="340" y="200" as="targetPoint" />
          </mxGeometry>
        </mxCell>
        <mxCell id="LSQktukB8Nl4H45oINtx-52" value="" style="endArrow=block;endSize=16;endFill=0;html=1;rounded=0;exitX=0.5;exitY=0;exitDx=0;exitDy=0;" parent="WIyWlLk6GJQsqaUBKTNV-1" edge="1">
          <mxGeometry width="160" relative="1" as="geometry">
            <mxPoint x="600" y="240" as="sourcePoint" />
            <mxPoint x="600" y="120" as="targetPoint" />
          </mxGeometry>
        </mxCell>
        <mxCell id="LSQktukB8Nl4H45oINtx-57" value="" style="line;strokeWidth=1;fillColor=none;align=left;verticalAlign=middle;spacingTop=-1;spacingLeft=3;spacingRight=3;rotatable=0;labelPosition=right;points=[];portConstraint=eastwest;strokeColor=inherit;" parent="WIyWlLk6GJQsqaUBKTNV-1" vertex="1">
          <mxGeometry x="1010" y="170" width="440" height="60" as="geometry" />
        </mxCell>
        <mxCell id="LSQktukB8Nl4H45oINtx-58" value="" style="endArrow=none;html=1;rounded=0;entryX=0.5;entryY=0;entryDx=0;entryDy=0;" parent="WIyWlLk6GJQsqaUBKTNV-1" target="LSQktukB8Nl4H45oINtx-25" edge="1">
          <mxGeometry width="50" height="50" relative="1" as="geometry">
            <mxPoint x="1450" y="200" as="sourcePoint" />
            <mxPoint x="1310" y="100" as="targetPoint" />
          </mxGeometry>
        </mxCell>
        <mxCell id="LSQktukB8Nl4H45oINtx-61" value="" style="endArrow=open;endSize=12;dashed=1;html=1;rounded=0;exitX=1;exitY=0.25;exitDx=0;exitDy=0;" parent="WIyWlLk6GJQsqaUBKTNV-1" source="LSQktukB8Nl4H45oINtx-15" edge="1">
          <mxGeometry width="160" relative="1" as="geometry">
            <mxPoint x="560" y="910" as="sourcePoint" />
            <mxPoint x="600" y="360" as="targetPoint" />
            <Array as="points">
              <mxPoint x="600" y="590" />
            </Array>
          </mxGeometry>
        </mxCell>
        <mxCell id="LSQktukB8Nl4H45oINtx-62" value="" style="endArrow=open;endSize=12;dashed=1;html=1;rounded=0;exitX=1;exitY=0.25;exitDx=0;exitDy=0;entryX=0.5;entryY=1;entryDx=0;entryDy=0;" parent="WIyWlLk6GJQsqaUBKTNV-1" source="LSQktukB8Nl4H45oINtx-15" target="zkfFHV4jXpPFQw0GAbJ--6" edge="1">
          <mxGeometry width="160" relative="1" as="geometry">
            <mxPoint x="420" y="780" as="sourcePoint" />
            <mxPoint x="580" y="780" as="targetPoint" />
            <Array as="points">
              <mxPoint x="1010" y="590" />
            </Array>
          </mxGeometry>
        </mxCell>
        <mxCell id="LSQktukB8Nl4H45oINtx-63" value="" style="endArrow=open;endSize=12;dashed=1;html=1;rounded=0;entryX=0.494;entryY=1.098;entryDx=0;entryDy=0;entryPerimeter=0;" parent="WIyWlLk6GJQsqaUBKTNV-1" target="LSQktukB8Nl4H45oINtx-32" edge="1">
          <mxGeometry width="160" relative="1" as="geometry">
            <mxPoint x="330" y="590" as="sourcePoint" />
            <mxPoint x="1450" y="490" as="targetPoint" />
            <Array as="points">
              <mxPoint x="1450" y="590" />
            </Array>
          </mxGeometry>
        </mxCell>
      </root>
    </mxGraphModel>
  </diagram>
</mxfile>
